<svg xmlns="http://www.w3.org/2000/svg" width="100" height="47" fill="none"><path fill="#0E0E0E" d="M15.324 37.823q1.407 3.905 5.781 3.905h.921v-16.06h-.92q-3.383 0-4.995 2.668-1.353 2.276-1.354 5.793 0 2.09.567 3.694M0 .021h12.253v4.253H4.397v2.127h6.525v4.036H4.398v2.15h7.855v4.254H0zM18.414 0h15.853l-7.926 17.183zm7.927 15.056L32.89.894H19.816zM40.6.02h12.252v4.253h-7.854V6.4h6.525v4.036h-6.526v2.15h7.855v4.254H40.599zM60.392 16.816V0h.942l11.745 11.43V0h.894v16.82zM86.806 16.84V4.273H80.45V.02H94.03v4.253h-6.355V16.84zM7.225 29.02q1.596 0 2.537.483a4.22 4.22 0 0 1 2.369 3.867 4.04 4.04 0 0 1-.629 2.187 4.46 4.46 0 0 1-1.715 1.583 4.78 4.78 0 0 1 2.199 1.595c.584.725.9 1.63.894 2.562a4.36 4.36 0 0 1-.64 2.308 4.66 4.66 0 0 1-1.704 1.655c-.372.2-.771.346-1.184.435q-.653.145-1.74.145H.168V29.02zM35.56 44.62q-1.897-1.657-1.873-4.966h3.94q-.025 1.377.821 2.102t2.369.725q1.256 0 1.981-.41.725-.412.725-1.258 0-.7-.737-1.015a7 7 0 0 0-1.462-.447 83 83 0 0 0-.894-.16 19.4 19.4 0 0 1-3.214-.887 5.6 5.6 0 0 1-2.272-1.57q-.918-1.065-.918-2.804 0-1.74.918-2.96t2.453-1.825a9.1 9.1 0 0 1 3.347-.604q2.2 0 3.806.822 1.608.82 2.526 2.489c.284.47.473.991.556 1.534q.095.716.096 1.438H43.79q0-1.305-.7-1.921-.702-.615-2.176-.616-1.184 0-1.836.41-.653.411-.653 1.112 0 .773.87 1.136 1.072.423 2.2.652 2.175.435 3.395.834c.82.27 1.55.76 2.114 1.414q.894 1.015.894 2.852 0 1.74-.966 2.996-.967 1.257-2.55 1.922a8.75 8.75 0 0 1-3.42.664q-3.503-.004-5.4-1.66M57.806 45.84V33.273H51.45V29.02h13.582v4.253h-6.356V45.84zM69.599 29.02h12.252v4.253h-7.854V35.4h6.525v4.036h-6.525v2.15h7.855v4.254H69.599zM100 45.84H87.07V29.02h6.55q2.101 0 3.432.75a5.2 5.2 0 0 1 2.03 1.981c.485.845.735 1.805.725 2.78a5.33 5.33 0 0 1-1.16 3.37 5.46 5.46 0 0 1-2.925 1.97zM87.965 30.494v8.676h6.21zm0 14.452h10.343L94.78 40.04l-.75.024h-6.065zm.628-15.032 6.573 9.184a4.62 4.62 0 0 0 2.683-1.62 4.48 4.48 0 0 0 1.063-2.948 4.6 4.6 0 0 0-.652-2.416 4.3 4.3 0 0 0-1.837-1.668q-1.063-.532-2.779-.532z"/></svg>